<svg width="322" height="89" viewBox="0 0 322 89" fill="none" xmlns="http://www.w3.org/2000/svg">
<g clip-path="url(#clip0_8_1205)">
<path d="M44.4095 89C68.9142 89 88.8167 69.0981 88.8167 44.5115C88.8144 19.9227 68.9142 0 44.4095 0C19.8657 0 0 19.9227 0 44.5115C0 69.0981 19.8657 89 44.4095 89Z" fill="#C00C3F"/>
<path d="M42.6256 24.9766V64.0232H55V60.5115H46.1917V24.9766H42.6256ZM30.2282 35.6317C33.1751 35.6317 35.5486 33.2306 35.5486 30.2984C35.5486 27.3639 33.1751 24.9512 30.2282 24.9512C27.286 24.9512 24.9102 27.3616 24.9102 30.2984C24.9102 33.2329 27.286 35.6317 30.2282 35.6317Z" fill="white"/>
<path d="M46.1895 7.26564C45.7245 7.24486 44.8451 7.21484 44.4215 7.21484C23.9226 7.21484 7.24316 23.9491 7.24316 44.4906C7.24316 54.4716 11.1109 63.8246 18.1142 70.8572C25.1451 77.8737 34.4736 81.7525 44.4215 81.7525C54.3301 81.7525 63.6587 77.8737 70.6781 70.8572C77.6952 63.8246 81.579 54.4716 81.579 44.4906V42.8352H55.0323V46.2637H78.0382C78.0382 46.3399 78.0382 46.7024 78.0244 46.7994C76.8549 64.3625 62.2267 78.2731 44.4192 78.2731C35.4037 78.2731 26.9523 74.7568 20.5913 68.3706C14.2096 62.0144 10.6942 53.5411 10.6942 44.4883C10.6942 35.4955 14.2096 26.9783 20.5913 20.6036C26.9523 14.2267 35.406 10.7104 44.4192 10.7104C44.8059 10.7104 45.7544 10.7104 46.1872 10.7358V7.26564H46.1895Z" fill="white"/>
<path d="M122.247 15.0209H108.905V72.949H149.887V61.6728H122.247V15.0209ZM179.242 50.8745H190.109V61.0055C188.103 61.7697 184.199 62.5339 180.481 62.5339C168.47 62.5339 164.469 56.4133 164.469 43.9942C164.469 32.1408 168.279 25.1612 180.29 25.1612C186.964 25.1612 190.776 27.2599 193.916 31.2773L202.211 23.6259C197.158 16.367 188.292 14.1667 180.002 14.1667C161.317 14.1667 151.505 24.397 151.505 43.8926C151.505 63.2958 160.366 73.8102 179.908 73.8102C188.868 73.8102 197.634 71.5175 202.398 68.1744V40.0692H179.242V50.8745ZM307.71 14.9309V0.336914H296.972V14.9309H282.779V25.2259H296.972V39.649H307.71V25.2259H322V14.9309H307.71Z" fill="#6D6E71"/>
<path d="M260.517 14.9956V48.4618C260.517 57.7109 255.938 62.2593 248.191 62.2593C240.445 62.2593 235.865 57.7109 235.865 48.4618V14.9956H222.771V48.6581C222.771 66.9254 232.46 73.7825 247.722 73.7825C247.881 73.7825 248.035 73.7802 248.191 73.7802C248.35 73.7802 248.505 73.7825 248.661 73.7825C263.925 73.7825 273.617 66.923 273.617 48.6581V14.9956H260.517Z" fill="#6D6E71"/>
</g>
<defs>
<clipPath id="clip0_8_1205">
<rect width="322" height="89" fill="white"/>
</clipPath>
</defs>
</svg>
