<svg width="27" height="27" viewBox="0 0 27 27" fill="none" xmlns="http://www.w3.org/2000/svg">
<path d="M2.25 2.25H3.71943C3.9962 2.25 4.13459 2.25 4.24596 2.3009C4.3441 2.34575 4.42726 2.41788 4.48554 2.50869C4.55168 2.61174 4.57125 2.74873 4.61039 3.02272L5.14286 6.75M5.14286 6.75L6.32623 15.4478C6.47641 16.5516 6.55149 17.1035 6.81536 17.5189C7.04788 17.8849 7.38122 18.176 7.77527 18.357C8.22247 18.5625 8.77944 18.5625 9.89337 18.5625H19.521C20.5814 18.5625 21.1115 18.5625 21.5448 18.3717C21.9269 18.2035 22.2546 17.9323 22.4913 17.5885C22.7598 17.1986 22.859 16.6777 23.0574 15.6361L24.5465 7.8184C24.6163 7.45178 24.6512 7.26847 24.6006 7.12519C24.5563 6.99949 24.4687 6.89365 24.3535 6.82652C24.2222 6.75 24.0356 6.75 23.6624 6.75H5.14286ZM11.25 23.625C11.25 24.2463 10.7463 24.75 10.125 24.75C9.50368 24.75 9 24.2463 9 23.625C9 23.0037 9.50368 22.5 10.125 22.5C10.7463 22.5 11.25 23.0037 11.25 23.625ZM20.25 23.625C20.25 24.2463 19.7463 24.75 19.125 24.75C18.5037 24.75 18 24.2463 18 23.625C18 23.0037 18.5037 22.5 19.125 22.5C19.7463 22.5 20.25 23.0037 20.25 23.625Z" stroke="#373737" stroke-width="1.5" stroke-linecap="round" stroke-linejoin="round"/>
</svg>
